<svg width="176" height="56" viewBox="0 0 176 56" fill="none" xmlns="http://www.w3.org/2000/svg">
<g clip-path="url(#clip0_731_15)">
<path fill-rule="evenodd" clip-rule="evenodd" d="M20.8735 22.6514V0.422332H15.2566L0 22.6514H6.81872L8.7698 19.4365H15.1963V22.6514H20.8735ZM15.1963 14.9317H11.4752L15.1359 8.77198H15.1963V14.9317ZM41.4252 16.2567C41.4252 12.7568 39.1724 11.2569 36.2307 9.88694C35.3004 9.46696 32.3889 8.322 31.8458 7.42204C31.6844 7.13969 31.6109 6.81602 31.6346 6.49208C31.6475 6.25012 31.7082 6.01306 31.8132 5.79442C31.9182 5.57578 32.0655 5.37986 32.2467 5.21782C32.4279 5.05579 32.6394 4.93082 32.8691 4.85006C33.0989 4.76931 33.3424 4.73434 33.5857 4.74716C35.0289 4.74716 35.4513 5.68212 35.6323 6.91207H41.2341C41.1738 5.17214 40.9023 3.93719 39.7608 2.52725C38.3478 0.812319 35.9139 0.0023512 33.7516 0.0023512C29.9702 0.0023512 25.9725 2.40725 25.9725 6.55208C25.9725 10.0519 28.527 11.7169 31.4083 12.9218C32.0721 13.1918 32.7309 13.4618 33.3946 13.7618C34.5663 14.2618 35.7681 14.7617 35.7681 16.1967C35.7641 16.7647 35.5337 17.3079 35.1274 17.7072C34.7211 18.1065 34.1721 18.3292 33.6008 18.3266C31.9514 18.3266 31.2927 16.7367 31.2927 15.2917H25.6456V16.0017C25.6456 20.7515 29.1656 23.0614 33.6611 23.0614C38.046 23.0614 41.4101 20.9015 41.4101 16.2467L41.4252 16.2567ZM61.5394 16.2567C61.5394 12.7568 59.2866 11.2569 56.3449 9.88694C55.4147 9.46196 52.5082 8.317 51.955 7.42204C51.8026 7.13642 51.7313 6.81493 51.7488 6.49208C51.7617 6.25012 51.8224 6.01306 51.9274 5.79442C52.0324 5.57578 52.1797 5.37986 52.3609 5.21782C52.5421 5.05579 52.7536 4.93082 52.9833 4.85006C53.2131 4.76931 53.4566 4.73434 53.6999 4.74716C55.1431 4.74716 55.5605 5.68212 55.7415 6.91207H61.3484C61.288 5.17214 61.0265 3.91219 59.875 2.52725C58.472 0.807319 56.0332 0.0023512 53.8709 0.0023512C50.0844 0.0023512 46.0917 2.40725 46.0917 6.55208C46.0917 10.0519 48.6412 11.7219 51.5276 12.9218C52.1863 13.1918 52.8451 13.4668 53.5088 13.7618C54.6755 14.2618 55.8823 14.7617 55.8823 16.1967C55.881 16.4777 55.824 16.7557 55.7146 17.0148C55.6053 17.274 55.4456 17.5091 55.2448 17.7069C55.0441 17.9047 54.8061 18.0612 54.5444 18.1675C54.2828 18.2739 54.0027 18.3279 53.72 18.3266C52.0656 18.3266 51.4069 16.7367 51.4069 15.2917H45.7598V16.0017C45.7598 20.7515 49.2798 23.0614 53.7804 23.0614C58.1653 23.0614 61.5294 20.9015 61.5294 16.2467L61.5394 16.2567ZM84.2232 22.6514V0.422332H78.5913L63.3598 22.6514H70.1785L72.1296 19.4365H78.5561V22.6514H84.2232ZM78.546 14.9317H74.8249L78.4857 8.77198H78.546V14.9317ZM102.406 22.6514V17.6516H95.8141V0.422332H90.1368V22.6514H102.406ZM129.148 11.5369C129.107 9.10481 128.307 6.74557 126.858 4.78553C125.409 2.82549 123.384 1.36151 121.062 0.596099C118.74 -0.169306 116.236 -0.198307 113.896 0.51311C111.557 1.22453 109.498 2.6412 108.003 4.56716C107.411 5.33192 106.926 6.17285 106.56 7.06706C105.975 8.58086 105.68 10.1901 105.69 11.8119C105.69 18.2116 111.096 23.0764 117.377 23.0764C123.914 23.0764 129.148 18.1216 129.148 11.5419V11.5369ZM123.471 11.5669C123.471 14.9617 121.067 18.0666 117.492 18.0666C113.801 18.0666 111.367 15.0017 111.367 11.4569C111.367 7.91202 113.801 4.95715 117.437 4.95715C121.072 4.95715 123.471 8.08202 123.471 11.5369V11.5669ZM164.112 22.6514V0.422332H158.48L150.102 12.6518H150.042V0.422332H144.425L129.163 22.6514H135.701L144.319 9.40696H144.38V22.6514H149.092L158.374 9.40696H158.399V22.6514H164.112ZM175.999 15.3217V0.422332H170.865V15.3217H175.999ZM175.999 22.6514V17.5466H170.865V22.6514H175.999Z" fill="#623D91"/>
<path d="M175.999 33.771H0.140625V56.0001H175.999V33.771Z" fill="#33B7EB"/>
<path fill-rule="evenodd" clip-rule="evenodd" d="M73.7276 49.0753C74.4678 49.1118 75.1979 48.8928 75.7943 48.4553C76.0537 48.2495 76.2601 47.9853 76.3965 47.6845C76.5329 47.3837 76.5954 47.055 76.5788 46.7254C76.6033 46.4078 76.5439 46.0892 76.4063 45.8015C76.2686 45.5138 76.0577 45.267 75.7943 45.0855C75.5653 44.9268 75.3211 44.7912 75.0652 44.6805C74.7798 44.5633 74.4876 44.4631 74.1902 44.3805C73.1845 44.0805 72.9029 43.8805 72.9029 43.5655C72.9029 43.2506 73.1392 43.0656 73.5968 43.0656C73.8565 43.0609 74.1107 43.1396 74.3218 43.29C74.5329 43.4404 74.6895 43.6545 74.7685 43.9005L76.3726 42.9606C76.135 42.4298 75.7422 41.9823 75.2453 41.6765C74.7485 41.3706 74.1706 41.2205 73.5868 41.2456C72.9073 41.2264 72.2441 41.4539 71.7212 41.8856C71.4795 42.094 71.2877 42.3534 71.1599 42.6449C71.032 42.9364 70.9712 43.2527 70.982 43.5705C70.982 44.8555 71.8419 45.5205 73.2147 45.9204C73.7175 46.0554 74.0192 46.1554 74.155 46.2054C74.4869 46.3454 74.6579 46.5204 74.6579 46.7454C74.6579 47.0754 74.3712 47.2454 73.7829 47.2454C73.4606 47.2583 73.1426 47.1681 72.8756 46.9882C72.6087 46.8082 72.4067 46.5479 72.2995 46.2454L70.6602 47.2004C71.0775 48.3453 72.1385 49.0653 73.7276 49.0653V49.0753ZM84.9211 47.9503C85.2942 47.5882 85.5885 47.1537 85.7857 46.6738C85.9829 46.1938 86.0789 45.6788 86.0676 45.1605C86.0609 44.5202 85.8962 43.8913 85.5878 43.3292C85.2795 42.767 84.837 42.2887 84.2992 41.9364C83.7614 41.5841 83.1449 41.3685 82.5037 41.3085C81.8625 41.2486 81.2163 41.3461 80.6219 41.5926C80.0275 41.8391 79.5031 42.2269 79.0948 42.7221C78.6864 43.2172 78.4066 43.8045 78.28 44.4323C78.1533 45.0601 78.1837 45.7093 78.3684 46.3227C78.5532 46.9361 78.8866 47.495 79.3394 47.9503C80.0891 48.6683 81.0894 49.0694 82.1303 49.0694C83.1711 49.0694 84.1715 48.6683 84.9211 47.9503ZM80.6871 46.6304C80.4954 46.4372 80.3453 46.2073 80.2459 45.9546C80.1465 45.7019 80.0999 45.4317 80.1088 45.1605C80.1088 44.6261 80.3223 44.1136 80.7024 43.7357C81.0824 43.3578 81.5978 43.1456 82.1353 43.1456C82.6728 43.1456 83.1882 43.3578 83.5683 43.7357C83.9483 44.1136 84.1618 44.6261 84.1618 45.1605C84.1619 45.5607 84.0436 45.9521 83.8216 46.286C83.5997 46.6198 83.2838 46.8814 82.9134 47.0381C82.543 47.1948 82.1344 47.2397 81.7386 47.1672C81.3427 47.0947 80.977 46.908 80.6871 46.6304ZM92.2075 44.1855H90.0955V41.4106H88.1746V48.9103H90.0955V46.0254H92.2075V48.9103H94.1133V41.4106H92.2075V44.1855ZM96.522 48.9153H98.4379V41.4156H96.5471V48.9153H96.522ZM102.752 41.4156H100.831V48.9153H105.357V47.0604H102.772L102.752 41.4156Z" fill="white"/>
</g>
<defs>
<clipPath id="clip0_731_15">
<rect width="176" height="56" fill="white"/>
</clipPath>
</defs>
</svg>
