<svg width="176" height="56" viewBox="0 0 176 56" fill="none" xmlns="http://www.w3.org/2000/svg">
<path d="M106.529 9V10.8135C110.295 10.8135 113.318 13.7894 113.318 17.4164C113.318 21.0433 110.249 24.0193 106.529 24.0193C102.67 24.0193 99.0891 20.3458 95.6017 16.8119C91.8352 12.9524 87.9293 9 83.2794 9C78.4899 9 74.584 12.7664 74.584 17.4164C74.584 22.0663 78.4899 25.8328 83.2794 25.8328V24.0193C79.5129 24.0193 76.4905 21.0433 76.4905 17.4164C76.4905 13.7894 79.5594 10.8135 83.2794 10.8135C87.1388 10.8135 90.7193 14.4869 94.2067 18.0209C97.9732 21.8338 101.833 25.7863 106.483 25.7863C111.272 25.7863 115.178 22.0198 115.178 17.3699C115.178 12.7199 111.318 9 106.529 9Z" fill="#324362"/>
<path d="M0 25.7861V9.04639H1.76697V25.7861H0Z" fill="#324362"/>
<path d="M13.7637 25.7861V9.04639H15.2982L25.8535 22.7172V9.04639H27.574V25.7861H26.086L15.4841 12.0688V25.7861H13.7637Z" fill="#324362"/>
<path d="M39.4785 25.7861V9.04639H50.8708V10.6274H41.2455V16.2073H49.0574V17.8348H41.2455V25.7861H39.4785Z" fill="#324362"/>
<path d="M61.6582 25.7861V9.04639H63.4252V25.7861H61.6582Z" fill="#324362"/>
<path d="M126.99 25.7861V9.04639H128.757V25.7861H126.99Z" fill="#324362"/>
<path d="M145.032 25.7861V10.6274H139.266V9.04639H152.657V10.6274H146.799V25.7861H145.032Z" fill="#324362"/>
<path d="M167.723 25.7861V18.1138L161.213 9.04639H163.259L168.606 16.4398L173.954 9.04639H175.953L169.443 18.0673V25.7861H167.723Z" fill="#324362"/>
<path d="M35.9902 46.6179V41.2705H36.8272V45.8739H39.4312V46.6179H35.9902Z" fill="#324362"/>
<path d="M45.1049 45.5019C45.3839 45.223 45.5234 44.8975 45.5234 44.479V41.2705H46.3604V44.479C46.3604 45.0835 46.1279 45.5949 45.7094 46.0599C45.2909 46.4784 44.7329 46.7109 44.1285 46.7109C43.524 46.7109 42.966 46.4784 42.5475 46.0599C42.129 45.6414 41.8965 45.0835 41.8965 44.479V41.2705H42.7335V44.479C42.7335 44.8975 42.873 45.223 43.152 45.5019C43.431 45.7809 43.7565 45.9204 44.1285 45.9204C44.5005 45.9204 44.8259 45.7809 45.1049 45.5019Z" fill="#324362"/>
<path d="M52.8696 41.2705H53.8461L52.0326 43.828L54.0321 46.6179H53.0091L51.5211 44.5255L50.0331 46.6179H49.0566L51.0561 43.828L49.2426 41.2705H50.2191L51.5676 43.1305L52.8696 41.2705Z" fill="#324362"/>
<path d="M59.937 45.5019C60.216 45.223 60.3555 44.8975 60.3555 44.479V41.2705H61.1925V44.479C61.1925 45.0835 60.96 45.5949 60.5415 46.0599C60.123 46.4784 59.565 46.7109 58.9605 46.7109C58.356 46.7109 57.798 46.4784 57.3795 46.0599C56.961 45.6414 56.7285 45.0835 56.7285 44.479V41.2705H57.5655V44.479C57.5655 44.8975 57.705 45.223 57.984 45.5019C58.263 45.7809 58.5885 45.9204 58.9605 45.9204C59.3325 45.9204 59.658 45.7809 59.937 45.5019Z" fill="#324362"/>
<path d="M64.4488 41.2705H66.6808C67.1923 41.2705 67.5643 41.41 67.8898 41.7355C68.2153 42.061 68.4013 42.433 68.4013 42.898C68.4013 43.1305 68.3548 43.3165 68.3083 43.5025C68.2153 43.6885 68.1223 43.828 68.0293 43.9675C67.9363 44.0605 67.8433 44.1535 67.7038 44.2465C67.6108 44.3395 67.5178 44.386 67.4248 44.4325L67.3318 44.479L68.5408 46.6179H67.6108L66.4483 44.572H65.2393V46.6179H64.4023V41.2705H64.4488ZM67.3318 42.2935C67.1458 42.1075 66.9598 42.061 66.7273 42.061H65.3323V43.828H66.7273C66.9598 43.828 67.1923 43.735 67.3318 43.5955C67.5178 43.4095 67.5643 43.2235 67.5643 42.991C67.6108 42.6655 67.5178 42.4795 67.3318 42.2935Z" fill="#324362"/>
<path d="M73.098 43.828L74.5395 41.2705H75.4695L73.5165 44.7115V46.6179H72.6795V44.7115L70.7266 41.2705H71.6566L73.098 43.828Z" fill="#324362"/>
<path d="M81.5602 41.2705H83.7921C84.3036 41.2705 84.6756 41.41 85.0011 41.7355C85.3266 42.061 85.5126 42.433 85.5126 42.898C85.5126 43.1305 85.4661 43.3165 85.4196 43.5025C85.3266 43.6885 85.2336 43.828 85.1406 43.9675C85.0476 44.0605 84.9546 44.1535 84.8151 44.2465C84.7221 44.3395 84.6291 44.386 84.5361 44.4325L84.4431 44.479L85.6521 46.6179H84.7221L83.5596 44.572H82.3507V46.6179H81.5137V41.2705H81.5602ZM84.4431 42.2935C84.2571 42.1075 84.0711 42.061 83.8386 42.061H82.4437V43.828H83.8386C84.0711 43.828 84.3036 43.735 84.4431 43.5955C84.6291 43.4095 84.6756 43.2235 84.6756 42.991C84.7221 42.6655 84.6291 42.4795 84.4431 42.2935Z" fill="#324362"/>
<path d="M92.627 45.8739V46.6179H88.7676V41.2705H92.534V42.0145H89.6046V43.4095H91.9295V44.1535H89.6046V45.7809H92.627V45.8739Z" fill="#324362"/>
<path d="M97.9751 44.6648C97.8821 44.5718 97.7426 44.4788 97.5566 44.3858C97.3706 44.3393 97.2311 44.2463 96.9986 44.1998C96.8126 44.1533 96.5801 44.1068 96.3942 44.0138C96.2082 43.9208 96.0222 43.8278 95.8362 43.7348C95.6502 43.6418 95.5572 43.5023 95.4177 43.2698C95.3247 43.0838 95.2782 42.8513 95.2782 42.5723C95.2782 42.1538 95.4177 41.8284 95.7432 41.5494C96.0687 41.2704 96.4871 41.1309 97.0451 41.1309C97.2311 41.1309 97.4171 41.1774 97.6031 41.2239C97.7891 41.2704 97.9286 41.3169 98.0681 41.4099C98.2076 41.4564 98.3006 41.5494 98.3936 41.5959C98.4866 41.6424 98.5331 41.7354 98.5796 41.7819L98.6261 41.8748L98.1146 42.4328L98.0681 42.3863C98.0681 42.3398 98.0216 42.3398 97.9286 42.2933C97.8821 42.2468 97.7891 42.2003 97.6961 42.1538C97.6031 42.1073 97.5101 42.0608 97.4171 42.0608C97.2776 42.0143 97.1846 42.0143 97.0451 42.0143C96.7661 42.0143 96.5336 42.0608 96.3942 42.2003C96.2082 42.3398 96.1617 42.4793 96.1617 42.6653C96.1617 42.8513 96.2082 42.9443 96.3012 43.0838C96.3942 43.2233 96.5336 43.2698 96.7196 43.3628C96.9056 43.4093 97.0451 43.5023 97.2776 43.5488C97.4636 43.5953 97.6961 43.6418 97.8821 43.7348C98.0681 43.8278 98.2541 43.8743 98.4401 44.0138C98.6261 44.1068 98.7191 44.2463 98.8586 44.4788C98.9516 44.6648 98.9981 44.8973 98.9981 45.1763C98.9981 45.6413 98.8121 46.0133 98.4866 46.3388C98.1611 46.6178 97.6961 46.8038 97.0916 46.8038C96.8591 46.8038 96.6266 46.7573 96.3942 46.7108C96.1617 46.6643 95.9757 46.5713 95.8362 46.5248C95.6967 46.4318 95.5572 46.3853 95.4642 46.2923C95.3712 46.1993 95.2782 46.1528 95.2317 46.1063L95.1387 46.0133L95.6502 45.5018L95.6967 45.5483C95.7432 45.5948 95.7897 45.6413 95.8362 45.6878C95.9292 45.7808 96.0222 45.8273 96.1152 45.8738C96.2082 45.9203 96.3477 45.9668 96.4871 46.0133C96.6266 46.0598 96.8126 46.0598 96.9986 46.0598C97.3241 46.0598 97.6031 45.9668 97.7891 45.8273C97.9751 45.6878 98.0681 45.4553 98.0681 45.2228C98.1146 44.9438 98.0681 44.8043 97.9751 44.6648Z" fill="#324362"/>
<path d="M101.926 41.2705H102.763V46.6179H101.926V41.2705Z" fill="#324362"/>
<path d="M108.018 41.2705C108.762 41.2705 109.413 41.5495 109.925 42.061C110.436 42.5725 110.715 43.2235 110.715 43.9675C110.715 44.7115 110.436 45.316 109.925 45.8739C109.413 46.3854 108.762 46.6644 108.018 46.6644H106.158V41.2705H108.018ZM106.949 42.061V45.8739H107.972C108.483 45.8739 108.948 45.6879 109.274 45.316C109.646 44.944 109.832 44.479 109.832 43.9675C109.832 43.456 109.646 42.991 109.274 42.619C108.902 42.247 108.483 42.061 107.972 42.061H106.949Z" fill="#324362"/>
<path d="M117.643 45.8739V46.6179H113.783V41.2705H117.55V42.0145H114.62V43.4095H116.945V44.1535H114.62V45.7809H117.643V45.8739Z" fill="#324362"/>
<path d="M125.129 41.2705V46.6179H124.385L121.409 42.7585V46.6179H120.572V41.2705H121.316L124.292 45.13V41.2705H125.129Z" fill="#324362"/>
<path d="M131.825 41.3167C132.057 41.4097 132.29 41.4562 132.429 41.5957C132.615 41.6887 132.755 41.7817 132.848 41.8747C132.987 41.9677 133.08 42.0607 133.127 42.1537L133.22 42.2467L132.708 42.8047C132.708 42.8047 132.662 42.7582 132.662 42.7117C132.615 42.6652 132.569 42.6187 132.476 42.5257C132.383 42.4327 132.243 42.3397 132.15 42.2932C132.011 42.2467 131.871 42.1537 131.685 42.1072C131.499 42.0607 131.313 42.0142 131.081 42.0142C130.523 42.0142 130.058 42.2002 129.686 42.5722C129.314 42.9442 129.128 43.4092 129.128 43.9672C129.128 44.5252 129.314 44.9902 129.686 45.3622C130.058 45.7342 130.523 45.9202 131.081 45.9202C131.267 45.9202 131.499 45.8737 131.685 45.8272C131.871 45.7807 132.011 45.6877 132.15 45.5947C132.29 45.5017 132.383 45.4087 132.476 45.3622C132.569 45.2692 132.662 45.2227 132.708 45.1762L132.755 45.0832L133.313 45.6412C133.313 45.6877 133.266 45.6877 133.22 45.7807C133.173 45.8272 133.08 45.9202 132.941 46.0132C132.801 46.1527 132.662 46.2457 132.476 46.3387C132.336 46.4317 132.104 46.5247 131.871 46.5712C131.639 46.6642 131.36 46.6642 131.081 46.6642C130.29 46.6642 129.593 46.3852 129.082 45.8737C128.524 45.3622 128.291 44.7112 128.291 43.9207C128.291 43.1302 128.57 42.4792 129.082 41.9677C129.64 41.4562 130.29 41.1772 131.081 41.1772C131.313 41.2237 131.546 41.2237 131.825 41.3167Z" fill="#324362"/>
<path d="M140.01 45.8739V46.6179H136.15V41.2705H139.917V42.0145H136.987V43.4095H139.312V44.1535H136.987V45.7809H140.01V45.8739Z" fill="#324362"/>
</svg>
