<svg width="176" height="58" viewBox="0 0 176 58" fill="none" xmlns="http://www.w3.org/2000/svg">
<g clip-path="url(#clip0_801_9)">
<path d="M175.835 34.5H0V56.7295H175.835V34.5Z" fill="#52352D"/>
<path d="M55.3581 45.404C55.9181 45.5813 56.3568 45.88 56.6741 46.3C56.9914 46.7107 57.1501 47.2193 57.1501 47.826C57.1501 48.6847 56.8141 49.3473 56.1421 49.814C55.4794 50.2713 54.5088 50.5 53.2301 50.5H48.1621V40.7H52.9501C54.1448 40.7 55.0594 40.9287 55.6941 41.386C56.3381 41.8433 56.6601 42.464 56.6601 43.248C56.6601 43.724 56.5434 44.1487 56.3101 44.522C56.0861 44.8953 55.7688 45.1893 55.3581 45.404ZM50.4161 42.408V44.718H52.6701C53.2301 44.718 53.6548 44.62 53.9441 44.424C54.2334 44.228 54.3781 43.9387 54.3781 43.556C54.3781 43.1733 54.2334 42.8887 53.9441 42.702C53.6548 42.506 53.2301 42.408 52.6701 42.408H50.4161ZM53.0621 48.792C53.6594 48.792 54.1074 48.694 54.4061 48.498C54.7141 48.302 54.8681 47.9987 54.8681 47.588C54.8681 46.776 54.2661 46.37 53.0621 46.37H50.4161V48.792H53.0621ZM65.9932 50.668C64.9758 50.668 64.0565 50.4487 63.2352 50.01C62.4232 49.5713 61.7838 48.9693 61.3172 48.204C60.8598 47.4293 60.6312 46.5613 60.6312 45.6C60.6312 44.6387 60.8598 43.7753 61.3172 43.01C61.7838 42.2353 62.4232 41.6287 63.2352 41.19C64.0565 40.7513 64.9758 40.532 65.9932 40.532C67.0105 40.532 67.9252 40.7513 68.7372 41.19C69.5492 41.6287 70.1885 42.2353 70.6552 43.01C71.1218 43.7753 71.3552 44.6387 71.3552 45.6C71.3552 46.5613 71.1218 47.4293 70.6552 48.204C70.1885 48.9693 69.5492 49.5713 68.7372 50.01C67.9252 50.4487 67.0105 50.668 65.9932 50.668ZM65.9932 48.736C66.5718 48.736 67.0945 48.6053 67.5612 48.344C68.0278 48.0733 68.3918 47.7 68.6532 47.224C68.9238 46.748 69.0592 46.2067 69.0592 45.6C69.0592 44.9933 68.9238 44.452 68.6532 43.976C68.3918 43.5 68.0278 43.1313 67.5612 42.87C67.0945 42.5993 66.5718 42.464 65.9932 42.464C65.4145 42.464 64.8918 42.5993 64.4252 42.87C63.9585 43.1313 63.5898 43.5 63.3192 43.976C63.0578 44.452 62.9272 44.9933 62.9272 45.6C62.9272 46.2067 63.0578 46.748 63.3192 47.224C63.5898 47.7 63.9585 48.0733 64.4252 48.344C64.8918 48.6053 65.4145 48.736 65.9932 48.736ZM82.0617 45.446H84.1337V49.422C83.6017 49.8233 82.9857 50.1313 82.2857 50.346C81.5857 50.5607 80.881 50.668 80.1717 50.668C79.1543 50.668 78.2397 50.4533 77.4277 50.024C76.6157 49.5853 75.9763 48.9833 75.5097 48.218C75.0523 47.4433 74.8237 46.5707 74.8237 45.6C74.8237 44.6293 75.0523 43.7613 75.5097 42.996C75.9763 42.2213 76.6203 41.6193 77.4417 41.19C78.263 40.7513 79.187 40.532 80.2137 40.532C81.0723 40.532 81.8517 40.6767 82.5517 40.966C83.2517 41.2553 83.8397 41.6753 84.3157 42.226L82.8597 43.57C82.1597 42.8327 81.315 42.464 80.3257 42.464C79.7003 42.464 79.145 42.5947 78.6597 42.856C78.1743 43.1173 77.7963 43.486 77.5257 43.962C77.255 44.438 77.1197 44.984 77.1197 45.6C77.1197 46.2067 77.255 46.748 77.5257 47.224C77.7963 47.7 78.1697 48.0733 78.6457 48.344C79.131 48.6053 79.6817 48.736 80.2977 48.736C80.951 48.736 81.539 48.596 82.0617 48.316V45.446ZM89.3065 40C89.6985 40 90.0205 40.126 90.2725 40.378C90.5245 40.6207 90.6505 40.9427 90.6505 41.344C90.6505 41.5307 90.6271 41.7173 90.5805 41.904C90.5338 42.0907 90.4358 42.3707 90.2865 42.744L89.4745 44.76H88.0885L88.6905 42.548C88.4571 42.4453 88.2751 42.2913 88.1445 42.086C88.0138 41.8807 87.9485 41.6333 87.9485 41.344C87.9485 40.9427 88.0745 40.6207 88.3265 40.378C88.5878 40.126 88.9145 40 89.3065 40ZM94.6645 40.7H96.9325V48.652H101.846V50.5H94.6645V40.7ZM112.03 48.4H107.48L106.612 50.5H104.288L108.656 40.7H110.896L115.278 50.5H112.898L112.03 48.4ZM111.316 46.678L109.762 42.926L108.208 46.678H111.316ZM124.918 50.5L123.028 47.77H122.916H120.942V50.5H118.674V40.7H122.916C123.784 40.7 124.536 40.8447 125.17 41.134C125.814 41.4233 126.309 41.834 126.654 42.366C127 42.898 127.172 43.528 127.172 44.256C127.172 44.984 126.995 45.614 126.64 46.146C126.295 46.6687 125.8 47.07 125.156 47.35L127.354 50.5H124.918ZM124.876 44.256C124.876 43.7053 124.699 43.2853 124.344 42.996C123.99 42.6973 123.472 42.548 122.79 42.548H120.942V45.964H122.79C123.472 45.964 123.99 45.8147 124.344 45.516C124.699 45.2173 124.876 44.7973 124.876 44.256Z" fill="white"/>
<path d="M78.2562 1.20996L63 23.4387H69.8174L71.7701 20.2251H78.1993V23.4387H83.8727V1.20996H78.2562ZM78.1969 15.7195H74.4762L78.1392 9.56115H78.2002L78.1969 15.7195Z" fill="#B48906"/>
<path d="M102.381 18.1672H95.8039V0.924805H90.1289V23.1543H102.381V18.1672Z" fill="#B48906"/>
<path d="M53.7667 23.5753C58.1526 23.5753 61.5148 21.4121 61.5148 16.7536C61.5148 13.2696 59.2654 11.7327 56.322 10.3856C55.3938 9.96155 52.4875 8.81749 51.9369 7.91999C51.7663 7.64383 51.7259 7.31918 51.7259 6.98878C51.7259 5.93677 52.687 5.24639 53.6785 5.24639C55.1202 5.24639 55.5406 6.17759 55.7219 7.4096H61.3367C61.2774 5.66802 61.0128 4.42943 59.8654 3.02401C58.4601 1.30544 56.0203 0.5 53.8582 0.5C50.0741 0.5 46.0814 2.90401 46.0814 7.04878C46.0814 10.5336 48.6316 12.2201 51.5157 13.4167C52.1751 13.6913 52.8345 13.9649 53.4989 14.2592C54.666 14.7761 55.8711 15.2455 55.8711 16.6911C55.8701 16.9731 55.8134 17.2521 55.7042 17.5121C55.5949 17.7722 55.4353 18.0082 55.2345 18.2067C55.0337 18.4052 54.7956 18.5622 54.5338 18.6689C54.2721 18.7755 53.9918 18.8296 53.7091 18.8281C52.0605 18.8281 51.397 17.2352 51.397 15.7945H45.75V16.5153C45.75 21.26 49.2943 23.5744 53.7676 23.5744" fill="#B48906"/>
<path d="M144.284 9.90638H144.345V23.1543H149.058L158.339 9.90638H158.399V23.1543H164.075V0.924805H158.46L150.081 13.1512H150.021V0.924805H144.405L129.148 23.1543H135.665L144.284 9.90638Z" fill="#B48906"/>
<path d="M117.374 0.503906C113.589 0.503906 110.255 2.06547 107.977 5.07029C107.408 5.82067 106.872 6.69516 106.536 7.5639C105.95 9.07766 105.654 10.6877 105.664 12.3103C105.664 18.7078 111.071 23.5751 117.347 23.5751C123.864 23.5751 129.119 18.6174 129.119 12.0391C129.12 5.48945 123.861 0.503906 117.374 0.503906ZM117.464 18.5854C113.769 18.5854 111.338 15.5214 111.338 11.9766C111.338 8.49262 113.769 5.48781 117.403 5.48781C121.038 5.48781 123.44 8.61098 123.44 12.0629C123.44 15.4639 121.038 18.5879 117.464 18.5879V18.5854Z" fill="#B48906"/>
<path d="M33.6685 23.5753C38.0535 23.5753 41.4165 21.4121 41.4165 16.7536C41.4165 13.2696 39.1663 11.7401 36.2237 10.3856C35.2923 9.96484 32.3793 8.82406 31.8386 7.91999C31.6581 7.64959 31.6276 7.31918 31.6276 6.98878C31.6276 5.93677 32.5895 5.24639 33.5803 5.24639C35.0219 5.24639 35.4431 6.17759 35.6236 7.4096H41.2393C41.1791 5.66802 40.9096 4.43601 39.7664 3.02401C38.3552 1.3112 35.9228 0.5 33.7608 0.5C29.9758 0.5 25.9831 2.90401 25.9831 7.04878C25.9831 10.5336 28.5383 12.216 31.4183 13.4167C32.0777 13.688 32.7371 13.9576 33.3965 14.2592C34.5677 14.7696 35.7695 15.2455 35.7695 16.6911C35.7686 16.9732 35.7118 17.2522 35.6025 17.5123C35.4932 17.7724 35.3336 18.0085 35.1327 18.207C34.9318 18.4055 34.6936 18.5625 34.4317 18.6691C34.1699 18.7756 33.8895 18.8297 33.6067 18.8281C31.9581 18.8281 31.2938 17.2352 31.2938 15.7945H25.6484V16.5153C25.6484 21.2608 29.1928 23.5744 33.666 23.5744" fill="#B48906"/>
<path d="M175.976 0.925781H170.84V15.8249H175.976V0.925781Z" fill="#B48906"/>
<path d="M175.976 18.0474H170.84V23.1537H175.976V18.0474Z" fill="#B48906"/>
<path d="M15.2554 0.924805L0 23.1535H6.81662L8.76847 19.94H15.1977V23.1535H20.8744V0.924805H15.2554ZM15.196 15.4344H11.4729L15.1351 9.276H15.196V15.4344Z" fill="#B48906"/>
</g>
<defs>
<clipPath id="clip0_801_9">
<rect width="176" height="57" fill="white" transform="translate(0 0.5)"/>
</clipPath>
</defs>
</svg>
