<svg width="176" height="58" viewBox="0 0 176 58" fill="none" xmlns="http://www.w3.org/2000/svg">
<g clip-path="url(#clip0_731_57)">
<path d="M175.835 34.5H0V56.7295H175.835V34.5Z" fill="#408A78"/>
<path d="M61.968 50.668C61.3053 50.668 60.694 50.5467 60.134 50.304C59.5833 50.052 59.1307 49.6973 58.776 49.24L60.036 47.728C60.568 48.4467 61.1747 48.806 61.856 48.806C62.78 48.806 63.242 48.2647 63.242 47.182V42.52H59.798V40.7H65.496V47.056C65.496 48.26 65.1973 49.1653 64.6 49.772C64.0027 50.3693 63.1253 50.668 61.968 50.668ZM74.8622 50.668C73.8449 50.668 72.9256 50.4487 72.1042 50.01C71.2922 49.5713 70.6529 48.9693 70.1862 48.204C69.7289 47.4293 69.5002 46.5613 69.5002 45.6C69.5002 44.6387 69.7289 43.7753 70.1862 43.01C70.6529 42.2353 71.2922 41.6287 72.1042 41.19C72.9256 40.7513 73.8449 40.532 74.8622 40.532C75.8796 40.532 76.7942 40.7513 77.6062 41.19C78.4182 41.6287 79.0576 42.2353 79.5242 43.01C79.9909 43.7753 80.2242 44.6387 80.2242 45.6C80.2242 46.5613 79.9909 47.4293 79.5242 48.204C79.0576 48.9693 78.4182 49.5713 77.6062 50.01C76.7942 50.4487 75.8796 50.668 74.8622 50.668ZM74.8622 48.736C75.4409 48.736 75.9636 48.6053 76.4302 48.344C76.8969 48.0733 77.2609 47.7 77.5222 47.224C77.7929 46.748 77.9282 46.2067 77.9282 45.6C77.9282 44.9933 77.7929 44.452 77.5222 43.976C77.2609 43.5 76.8969 43.1313 76.4302 42.87C75.9636 42.5993 75.4409 42.464 74.8622 42.464C74.2836 42.464 73.7609 42.5993 73.2942 42.87C72.8276 43.1313 72.4589 43.5 72.1882 43.976C71.9269 44.452 71.7962 44.9933 71.7962 45.6C71.7962 46.2067 71.9269 46.748 72.1882 47.224C72.4589 47.7 72.8276 48.0733 73.2942 48.344C73.7609 48.6053 74.2836 48.736 74.8622 48.736ZM93.2267 50.5L93.2127 44.62L90.3287 49.464H89.3067L86.4367 44.746V50.5H84.3087V40.7H86.1847L89.8527 46.79L93.4647 40.7H95.3267L95.3547 50.5H93.2267ZM100.06 40.7H102.328V50.5H100.06V40.7ZM111.738 47.028V50.5H109.47V47L105.676 40.7H108.084L110.702 45.054L113.32 40.7H115.546L111.738 47.028Z" fill="white"/>
<path d="M78.2562 1.20996L63 23.4387H69.8174L71.7701 20.2251H78.1993V23.4387H83.8727V1.20996H78.2562ZM78.1969 15.7195H74.4762L78.1392 9.56115H78.2002L78.1969 15.7195Z" fill="#E28E35"/>
<path d="M102.381 18.1672H95.8039V0.924805H90.1289V23.1543H102.381V18.1672Z" fill="#E28E35"/>
<path d="M53.7667 23.5753C58.1526 23.5753 61.5148 21.4121 61.5148 16.7536C61.5148 13.2696 59.2654 11.7327 56.322 10.3856C55.3938 9.96155 52.4875 8.81749 51.9369 7.91999C51.7663 7.64383 51.7259 7.31918 51.7259 6.98878C51.7259 5.93677 52.687 5.24639 53.6785 5.24639C55.1202 5.24639 55.5406 6.17759 55.7219 7.4096H61.3367C61.2774 5.66802 61.0128 4.42943 59.8654 3.02401C58.4601 1.30544 56.0203 0.5 53.8582 0.5C50.0741 0.5 46.0814 2.90401 46.0814 7.04878C46.0814 10.5336 48.6316 12.2201 51.5157 13.4167C52.1751 13.6913 52.8345 13.9649 53.4989 14.2592C54.666 14.7761 55.8711 15.2455 55.8711 16.6911C55.8701 16.9731 55.8134 17.2521 55.7042 17.5121C55.5949 17.7722 55.4353 18.0082 55.2345 18.2067C55.0337 18.4052 54.7956 18.5622 54.5338 18.6689C54.2721 18.7755 53.9918 18.8296 53.7091 18.8281C52.0605 18.8281 51.397 17.2352 51.397 15.7945H45.75V16.5153C45.75 21.26 49.2943 23.5744 53.7676 23.5744" fill="#E28E35"/>
<path d="M144.284 9.90638H144.345V23.1543H149.058L158.339 9.90638H158.399V23.1543H164.075V0.924805H158.46L150.08 13.1512H150.021V0.924805H144.405L129.148 23.1543H135.665L144.284 9.90638Z" fill="#E28E35"/>
<path d="M117.374 0.503906C113.589 0.503906 110.255 2.06547 107.977 5.07029C107.408 5.82067 106.872 6.69516 106.536 7.5639C105.95 9.07766 105.654 10.6877 105.664 12.3103C105.664 18.7078 111.071 23.5751 117.347 23.5751C123.864 23.5751 129.119 18.6174 129.119 12.0391C129.12 5.48945 123.861 0.503906 117.374 0.503906ZM117.464 18.5854C113.769 18.5854 111.338 15.5214 111.338 11.9766C111.338 8.49262 113.769 5.48781 117.403 5.48781C121.038 5.48781 123.44 8.61098 123.44 12.0629C123.44 15.4639 121.038 18.5879 117.464 18.5879V18.5854Z" fill="#E28E35"/>
<path d="M33.6685 23.5753C38.0535 23.5753 41.4165 21.4121 41.4165 16.7536C41.4165 13.2696 39.1663 11.7401 36.2237 10.3856C35.2923 9.96484 32.3793 8.82406 31.8386 7.91999C31.6581 7.64959 31.6276 7.31918 31.6276 6.98878C31.6276 5.93677 32.5895 5.24639 33.5803 5.24639C35.0219 5.24639 35.4431 6.17759 35.6236 7.4096H41.2393C41.1791 5.66802 40.9096 4.43601 39.7664 3.02401C38.3552 1.3112 35.9228 0.5 33.7608 0.5C29.9758 0.5 25.9831 2.90401 25.9831 7.04878C25.9831 10.5336 28.5383 12.216 31.4183 13.4167C32.0777 13.688 32.7371 13.9576 33.3965 14.2592C34.5677 14.7696 35.7695 15.2455 35.7695 16.6911C35.7686 16.9732 35.7118 17.2522 35.6025 17.5123C35.4932 17.7724 35.3336 18.0085 35.1327 18.207C34.9318 18.4055 34.6936 18.5625 34.4317 18.6691C34.1699 18.7756 33.8895 18.8297 33.6067 18.8281C31.9581 18.8281 31.2938 17.2352 31.2938 15.7945H25.6484V16.5153C25.6484 21.2608 29.1928 23.5744 33.666 23.5744" fill="#E28E35"/>
<path d="M175.976 0.925781H170.84V15.8249H175.976V0.925781Z" fill="#E28E35"/>
<path d="M175.976 18.0474H170.84V23.1537H175.976V18.0474Z" fill="#E28E35"/>
<path d="M15.2554 0.924805L0 23.1535H6.81662L8.76847 19.94H15.1977V23.1535H20.8744V0.924805H15.2554ZM15.196 15.4344H11.4729L15.1351 9.276H15.196V15.4344Z" fill="#E28E35"/>
</g>
<defs>
<clipPath id="clip0_731_57">
<rect width="176" height="57" fill="white" transform="translate(0 0.5)"/>
</clipPath>
</defs>
</svg>
