<svg width="24" height="24" viewBox="0 0 24 24" fill="none" xmlns="http://www.w3.org/2000/svg">
<path d="M0.423911 11.5716L5.95399 13.6356L8.09447 20.5194C8.23143 20.9602 8.77055 21.1232 9.12839 20.8306L12.2109 18.3177C12.5341 18.0544 12.9943 18.0413 13.332 18.2864L18.8918 22.323C19.2746 22.6012 19.8169 22.3914 19.9129 21.9289L23.9858 2.33759C24.0906 1.83231 23.5941 1.41079 23.113 1.59687L0.417431 10.3522C-0.142649 10.5682 -0.137769 11.3611 0.423911 11.5716ZM7.74951 12.5369L18.5573 5.88031C18.7516 5.76103 18.9514 6.02367 18.7846 6.17839L9.86503 14.4696C9.55151 14.7614 9.34927 15.152 9.29199 15.5759L8.98815 17.8276C8.94791 18.1282 8.52559 18.1581 8.44263 17.8671L7.27407 13.7611C7.14023 13.2928 7.33527 12.7926 7.74951 12.5369Z" fill="#272727"/>
</svg>
